<svg xmlns="http://www.w3.org/2000/svg" width="413.2" height="64" viewBox="0 0 413.2 64" role="img" aria-label="Atelier Cormier"><rect width="64" height="64" rx="6" fill="#2D4A3E"/><g fill="none" stroke="#FAFAF7" stroke-width="4.3" stroke-linecap="round" stroke-linejoin="round"><path d="M19.25 47 L32 16 L44.75 47"/><path d="M23.4 37 H40.6"/></g><path d="M85.29 48.64L78.79 48.64L91.74 15.36L99.70 15.36L112.70 48.64L105.86 48.64L103.19 41.56L87.96 41.56L85.29 48.64ZM93.29 27.20L89.95 36.22L101.15 36.22L97.81 27.20Q97.61 26.71 97.34 25.96Q97.08 25.21 96.79 24.31Q96.50 23.41 96.20 22.49Q95.91 21.57 95.67 20.84L95.67 20.84L95.43 20.84Q95.14 21.81 94.72 23.07Q94.31 24.33 93.92 25.45Q93.54 26.57 93.29 27.20L93.29 27.20ZM122.84 49.22L122.84 49.22Q120.46 49.22 119.10 48.28Q117.74 47.33 117.19 45.85Q116.63 44.37 116.63 42.82L116.63 42.82L116.63 27.97L113.57 27.97L113.57 23.12L116.77 23.12L117.84 15.99L122.55 15.99L122.55 23.12L126.96 23.12L126.96 27.97L122.55 27.97L122.55 42.24Q122.55 43.26 123.08 43.81Q123.61 44.37 124.68 44.37L124.68 44.37L126.96 44.37L126.96 48.45Q126.48 48.64 125.77 48.81Q125.07 48.98 124.29 49.10Q123.52 49.22 122.84 49.22ZM142.29 49.22L142.29 49.22Q138.22 49.22 135.50 47.79Q132.78 46.36 131.42 43.40Q130.07 40.44 130.07 35.88L130.07 35.88Q130.07 31.27 131.42 28.34Q132.78 25.40 135.50 23.97Q138.22 22.54 142.29 22.54L142.29 22.54Q145.98 22.54 148.48 23.92Q150.98 25.31 152.24 28.17Q153.50 31.03 153.50 35.59L153.50 35.59L153.50 37.34L136.13 37.34Q136.23 39.71 136.86 41.34Q137.49 42.96 138.82 43.76Q140.16 44.56 142.34 44.56L142.34 44.56Q143.46 44.56 144.43 44.27Q145.40 43.98 146.12 43.38Q146.85 42.77 147.26 41.85Q147.68 40.93 147.68 39.71L147.68 39.71L153.50 39.71Q153.50 42.14 152.65 43.93Q151.80 45.73 150.27 46.89Q148.74 48.06 146.71 48.64Q144.67 49.22 142.29 49.22ZM136.23 33.16L136.23 33.16L147.34 33.16Q147.34 31.56 146.97 30.45Q146.61 29.33 145.95 28.60Q145.30 27.88 144.38 27.56Q143.46 27.25 142.29 27.25L142.29 27.25Q140.40 27.25 139.11 27.88Q137.83 28.51 137.15 29.82Q136.47 31.13 136.23 33.16ZM164.46 48.64L158.54 48.64L158.54 13.57L164.46 13.57L164.46 48.64ZM176.69 19.19L170.77 19.19L170.77 13.57L176.69 13.57L176.69 19.19ZM176.69 48.64L170.77 48.64L170.77 23.12L176.69 23.12L176.69 48.64ZM193.96 49.22L193.96 49.22Q189.88 49.22 187.17 47.79Q184.45 46.36 183.09 43.40Q181.73 40.44 181.73 35.88L181.73 35.88Q181.73 31.27 183.09 28.34Q184.45 25.40 187.17 23.97Q189.88 22.54 193.96 22.54L193.96 22.54Q197.65 22.54 200.14 23.92Q202.64 25.31 203.90 28.17Q205.16 31.03 205.16 35.59L205.16 35.59L205.16 37.34L187.80 37.34Q187.89 39.71 188.52 41.34Q189.16 42.96 190.49 43.76Q191.82 44.56 194.01 44.56L194.01 44.56Q195.12 44.56 196.09 44.27Q197.06 43.98 197.79 43.38Q198.52 42.77 198.93 41.85Q199.34 40.93 199.34 39.71L199.34 39.71L205.16 39.71Q205.16 42.14 204.32 43.93Q203.47 45.73 201.94 46.89Q200.41 48.06 198.37 48.64Q196.34 49.22 193.96 49.22ZM187.89 33.16L187.89 33.16L199.00 33.16Q199.00 31.56 198.64 30.45Q198.28 29.33 197.62 28.60Q196.97 27.88 196.04 27.56Q195.12 27.25 193.96 27.25L193.96 27.25Q192.07 27.25 190.78 27.88Q189.49 28.51 188.82 29.82Q188.14 31.13 187.89 33.16ZM216.13 48.64L210.21 48.64L210.21 23.12L215.16 23.12L215.64 27.15L215.98 27.15Q216.47 25.94 217.17 24.89Q217.88 23.85 218.99 23.19Q220.11 22.54 221.71 22.54L221.71 22.54Q222.48 22.54 223.14 22.69Q223.79 22.83 224.13 22.98L224.13 22.98L224.13 28.56L222.34 28.56Q220.83 28.56 219.67 28.97Q218.51 29.38 217.71 30.25Q216.90 31.13 216.52 32.44Q216.13 33.75 216.13 35.49L216.13 35.49L216.13 48.64ZM251.69 49.22L251.69 49.22Q246.59 49.22 242.98 47.43Q239.37 45.63 237.45 41.82Q235.53 38.02 235.53 32L235.53 32Q235.53 23.22 239.80 19.00Q244.07 14.78 251.69 14.78L251.69 14.78Q255.81 14.78 259.14 16.18Q262.46 17.59 264.42 20.43Q266.39 23.27 266.39 27.63L266.39 27.63L259.94 27.63Q259.94 25.21 258.89 23.53Q257.85 21.86 256.01 20.99Q254.16 20.11 251.79 20.11L251.79 20.11Q248.49 20.11 246.30 21.40Q244.12 22.69 243.08 25.21Q242.03 27.73 242.03 31.47L242.03 31.47L242.03 32.53Q242.03 36.32 243.08 38.84Q244.12 41.36 246.28 42.62Q248.44 43.89 251.79 43.89L251.79 43.89Q254.31 43.89 256.20 43.04Q258.09 42.19 259.14 40.51Q260.18 38.84 260.18 36.41L260.18 36.41L266.39 36.41Q266.39 40.78 264.45 43.62Q262.51 46.46 259.18 47.84Q255.86 49.22 251.69 49.22ZM282.83 49.22L282.83 49.22Q278.66 49.22 275.85 47.79Q273.03 46.36 271.63 43.40Q270.22 40.44 270.22 35.88L270.22 35.88Q270.22 31.27 271.63 28.34Q273.03 25.40 275.85 23.97Q278.66 22.54 282.83 22.54L282.83 22.54Q287.05 22.54 289.84 23.97Q292.63 25.40 294.04 28.34Q295.45 31.27 295.45 35.88L295.45 35.88Q295.45 40.44 294.04 43.40Q292.63 46.36 289.84 47.79Q287.05 49.22 282.83 49.22ZM282.83 44.37L282.83 44.37Q285.16 44.37 286.59 43.47Q288.03 42.58 288.68 40.76Q289.33 38.94 289.33 36.22L289.33 36.22L289.33 35.54Q289.33 32.82 288.68 31.01Q288.03 29.19 286.59 28.29Q285.16 27.39 282.83 27.39L282.83 27.39Q280.51 27.39 279.07 28.29Q277.64 29.19 276.99 31.01Q276.33 32.82 276.33 35.54L276.33 35.54L276.33 36.22Q276.33 38.94 276.99 40.76Q277.64 42.58 279.07 43.47Q280.51 44.37 282.83 44.37ZM306.41 48.64L300.49 48.64L300.49 23.12L305.44 23.12L305.93 27.15L306.27 27.15Q306.75 25.94 307.45 24.89Q308.16 23.85 309.27 23.19Q310.39 22.54 311.99 22.54L311.99 22.54Q312.77 22.54 313.42 22.69Q314.08 22.83 314.42 22.98L314.42 22.98L314.42 28.56L312.62 28.56Q311.12 28.56 309.95 28.97Q308.79 29.38 307.99 30.25Q307.19 31.13 306.80 32.44Q306.41 33.75 306.41 35.49L306.41 35.49L306.41 48.64ZM323.97 48.64L318.05 48.64L318.05 23.12L323.00 23.12L323.49 26.52L323.83 26.52Q324.65 25.35 325.72 24.46Q326.79 23.56 328.17 23.05Q329.55 22.54 331.20 22.54L331.20 22.54Q333.43 22.54 335.18 23.46Q336.93 24.38 337.90 26.52L337.90 26.52L338.24 26.52Q339.06 25.35 340.18 24.46Q341.29 23.56 342.75 23.05Q344.20 22.54 345.90 22.54L345.90 22.54Q348.18 22.54 349.93 23.36Q351.67 24.19 352.69 26.08Q353.71 27.97 353.71 31.13L353.71 31.13L353.71 48.64L347.79 48.64L347.79 32.34Q347.79 31.03 347.50 30.13Q347.21 29.23 346.70 28.73Q346.19 28.22 345.44 27.97Q344.69 27.73 343.82 27.73L343.82 27.73Q342.41 27.73 341.29 28.51Q340.18 29.28 339.52 30.64Q338.87 32 338.87 33.79L338.87 33.79L338.87 48.64L332.95 48.64L332.95 32.34Q332.95 31.03 332.66 30.13Q332.37 29.23 331.86 28.73Q331.35 28.22 330.60 27.97Q329.84 27.73 328.97 27.73L328.97 27.73Q327.56 27.73 326.42 28.51Q325.28 29.28 324.63 30.64Q323.97 32 323.97 33.79L323.97 33.79L323.97 48.64ZM365.74 19.19L359.82 19.19L359.82 13.57L365.74 13.57L365.74 19.19ZM365.74 48.64L359.82 48.64L359.82 23.12L365.74 23.12L365.74 48.64ZM383.01 49.22L383.01 49.22Q378.94 49.22 376.22 47.79Q373.51 46.36 372.15 43.40Q370.79 40.44 370.79 35.88L370.79 35.88Q370.79 31.27 372.15 28.34Q373.51 25.40 376.22 23.97Q378.94 22.54 383.01 22.54L383.01 22.54Q386.70 22.54 389.20 23.92Q391.70 25.31 392.96 28.17Q394.22 31.03 394.22 35.59L394.22 35.59L394.22 37.34L376.85 37.34Q376.95 39.71 377.58 41.34Q378.21 42.96 379.55 43.76Q380.88 44.56 383.06 44.56L383.06 44.56Q384.18 44.56 385.15 44.27Q386.12 43.98 386.85 43.38Q387.57 42.77 387.99 41.85Q388.40 40.93 388.40 39.71L388.40 39.71L394.22 39.71Q394.22 42.14 393.37 43.93Q392.52 45.73 390.99 46.89Q389.47 48.06 387.43 48.64Q385.39 49.22 383.01 49.22ZM376.95 33.16L376.95 33.16L388.06 33.16Q388.06 31.56 387.70 30.45Q387.33 29.33 386.68 28.60Q386.02 27.88 385.10 27.56Q384.18 27.25 383.01 27.25L383.01 27.25Q381.12 27.25 379.84 27.88Q378.55 28.51 377.87 29.82Q377.19 31.13 376.95 33.16ZM405.18 48.64L399.27 48.64L399.27 23.12L404.21 23.12L404.70 27.15L405.04 27.15Q405.52 25.94 406.23 24.89Q406.93 23.85 408.05 23.19Q409.16 22.54 410.76 22.54L410.76 22.54Q411.54 22.54 412.19 22.69Q412.85 22.83 413.19 22.98L413.19 22.98L413.19 28.56L411.39 28.56Q409.89 28.56 408.73 28.97Q407.56 29.38 406.76 30.25Q405.96 31.13 405.57 32.44Q405.18 33.75 405.18 35.49L405.18 35.49L405.18 48.64Z" fill="#1A1A1A"/></svg>
