<svg viewBox="0 0 320 200" xmlns="http://www.w3.org/2000/svg">
  <rect width="320" height="200" fill="#FBFBF9"/>
  <!-- Gauche ~55%: grande image -->
  <rect x="24" y="30" width="150" height="118" rx="2" fill="#D3D6DC"/>
  <!-- Accent amber en coin de l'image -->
  <rect x="30" y="36" width="14" height="4" rx="2" fill="#FBBF24"/>
  <!-- Carte stat navy chevauchant le bord bas de l'image -->
  <rect x="40" y="132" width="152" height="42" rx="2" fill="#16243F"/>
  <!-- Stat 1: tick amber + valeur + label on-navy -->
  <rect x="50" y="142" width="3" height="12" rx="1" fill="#FBBF24"/>
  <rect x="58" y="143" width="22" height="8" rx="2" fill="#E6ECF3"/>
  <rect x="58" y="156" width="26" height="4" rx="2" fill="#5C6678"/>
  <!-- Stat 2 -->
  <rect x="96" y="142" width="3" height="12" rx="1" fill="#FBBF24"/>
  <rect x="104" y="143" width="22" height="8" rx="2" fill="#E6ECF3"/>
  <rect x="104" y="156" width="26" height="4" rx="2" fill="#5C6678"/>
  <!-- Stat 3 -->
  <rect x="142" y="142" width="3" height="12" rx="1" fill="#FBBF24"/>
  <rect x="150" y="143" width="22" height="8" rx="2" fill="#E6ECF3"/>
  <rect x="150" y="156" width="26" height="4" rx="2" fill="#5C6678"/>
  <!-- Droite ~45%: tete + corps -->
  <rect x="206" y="30" width="30" height="5" rx="2" fill="#5C6678"/>
  <rect x="206" y="42" width="82" height="10" rx="2" fill="#16243F"/>
  <rect x="206" y="56" width="66" height="10" rx="2" fill="#16243F"/>
  <rect x="206" y="80" width="90" height="4" rx="2" fill="#5C6678"/>
  <rect x="206" y="90" width="90" height="4" rx="2" fill="#5C6678"/>
  <rect x="206" y="100" width="74" height="4" rx="2" fill="#5C6678"/>
  <rect x="206" y="110" width="82" height="4" rx="2" fill="#5C6678"/>
</svg>
