<svg viewBox="0 0 320 200" xmlns="http://www.w3.org/2000/svg">
  <rect width="320" height="200" fill="#FAFAF7"/>
  <!-- Photo cols 1-5 + figcaption -->
  <rect x="24" y="28" width="104" height="126" rx="2" fill="#D8D5CE"/>
  <rect x="24" y="162" width="64" height="4" rx="2" fill="#6B675F"/>
  <!-- Copy cols 6-12: eyebrow, h2, paragraphes, diffs numerotees -->
  <rect x="148" y="28" width="36" height="5" rx="2" fill="#6B675F"/>
  <rect x="148" y="41" width="148" height="10" rx="2" fill="#6B675F"/>
  <rect x="148" y="55" width="112" height="10" rx="2" fill="#6B675F"/>
  <rect x="148" y="75" width="148" height="4" rx="2" fill="#6B675F"/>
  <rect x="148" y="83" width="148" height="4" rx="2" fill="#6B675F"/>
  <rect x="148" y="91" width="124" height="4" rx="2" fill="#6B675F"/>
  <!-- Liste de differenciateurs: numero accent + titre + corps -->
  <rect x="148" y="109" width="14" height="8" rx="2" fill="#2D4A3E"/>
  <rect x="170" y="110" width="64" height="6" rx="2" fill="#6B675F"/>
  <rect x="170" y="122" width="110" height="4" rx="2" fill="#6B675F"/>
  <rect x="148" y="138" width="14" height="8" rx="2" fill="#2D4A3E"/>
  <rect x="170" y="139" width="72" height="6" rx="2" fill="#6B675F"/>
  <rect x="170" y="151" width="100" height="4" rx="2" fill="#6B675F"/>
</svg>
