<svg viewBox="0 0 320 200" xmlns="http://www.w3.org/2000/svg">
  <rect width="320" height="200" fill="#FAFAF7"/>
  <!-- Corps riche: sous-titre, paragraphes, liste a puces accent, paragraphe -->
  <rect x="84" y="42" width="96" height="8" rx="2" fill="#6B675F"/>
  <rect x="84" y="60" width="152" height="4" rx="2" fill="#6B675F"/>
  <rect x="84" y="68" width="152" height="4" rx="2" fill="#6B675F"/>
  <rect x="84" y="76" width="124" height="4" rx="2" fill="#6B675F"/>
  <rect x="84" y="94" width="4" height="4" rx="1" fill="#2D4A3E"/>
  <rect x="94" y="94" width="118" height="4" rx="2" fill="#6B675F"/>
  <rect x="84" y="104" width="4" height="4" rx="1" fill="#2D4A3E"/>
  <rect x="94" y="104" width="106" height="4" rx="2" fill="#6B675F"/>
  <rect x="84" y="114" width="4" height="4" rx="1" fill="#2D4A3E"/>
  <rect x="94" y="114" width="126" height="4" rx="2" fill="#6B675F"/>
  <rect x="84" y="132" width="152" height="4" rx="2" fill="#6B675F"/>
  <rect x="84" y="140" width="136" height="4" rx="2" fill="#6B675F"/>
</svg>
