<svg viewBox="0 0 320 200" xmlns="http://www.w3.org/2000/svg">
  <rect width="320" height="200" fill="#FBFBF9"/>
  <rect x="24" y="24" width="112" height="152" rx="2" fill="#16243F"/>
  <circle cx="124" cy="160" r="26" fill="none" stroke="#E6ECF3" stroke-width="1" opacity="0.35"/>
  <circle cx="124" cy="160" r="17" fill="none" stroke="#FBBF24" stroke-width="1" opacity="0.55"/>
  <circle cx="124" cy="160" r="8" fill="none" stroke="#FBBF24" stroke-width="1" opacity="0.7"/>
  <rect x="36" y="36" width="16" height="16" rx="4" fill="#FCE9BD"/>
  <circle cx="44" cy="43" r="2.5" fill="#FBBF24"/>
  <rect x="36" y="70" width="26" height="4" rx="2" fill="#5C6678"/>
  <rect x="36" y="78" width="60" height="5" rx="2" fill="#E6ECF3"/>
  <rect x="36" y="98" width="30" height="4" rx="2" fill="#5C6678"/>
  <rect x="36" y="106" width="52" height="5" rx="2" fill="#E6ECF3"/>
  <rect x="36" y="126" width="24" height="4" rx="2" fill="#5C6678"/>
  <rect x="36" y="134" width="64" height="5" rx="2" fill="#E6ECF3"/>
  <rect x="152" y="24" width="66" height="16" rx="2" fill="none" stroke="#D3D6DC" stroke-width="1"/>
  <rect x="160" y="30" width="28" height="4" rx="2" fill="#D3D6DC"/>
  <rect x="230" y="24" width="66" height="16" rx="2" fill="none" stroke="#D3D6DC" stroke-width="1"/>
  <rect x="238" y="30" width="28" height="4" rx="2" fill="#D3D6DC"/>
  <rect x="152" y="48" width="144" height="16" rx="2" fill="none" stroke="#D3D6DC" stroke-width="1"/>
  <rect x="160" y="54" width="40" height="4" rx="2" fill="#D3D6DC"/>
  <rect x="152" y="72" width="144" height="60" rx="2" fill="none" stroke="#D3D6DC" stroke-width="1"/>
  <rect x="160" y="80" width="64" height="4" rx="2" fill="#D3D6DC"/>
  <rect x="160" y="90" width="48" height="4" rx="2" fill="#D3D6DC"/>
  <rect x="152" y="142" width="68" height="18" rx="2" fill="#FBBF24"/>
  <rect x="166" y="149" width="40" height="4" rx="2" fill="#16243F"/>
</svg>
