<svg viewBox="0 0 320 200" xmlns="http://www.w3.org/2000/svg">
  <rect width="320" height="200" fill="#FAFAF7"/>
  <!-- Copy cols 1-5: eyebrow, h2, lead, meta (dt/dd) -->
  <rect x="24" y="26" width="36" height="5" rx="2" fill="#6B675F"/>
  <rect x="24" y="39" width="104" height="10" rx="2" fill="#6B675F"/>
  <rect x="24" y="53" width="80" height="10" rx="2" fill="#6B675F"/>
  <rect x="24" y="72" width="104" height="4" rx="2" fill="#6B675F"/>
  <rect x="24" y="80" width="90" height="4" rx="2" fill="#6B675F"/>
  <rect x="24" y="100" width="28" height="4" rx="2" fill="#6B675F"/>
  <rect x="24" y="108" width="68" height="5" rx="2" fill="#6B675F"/>
  <rect x="24" y="126" width="32" height="4" rx="2" fill="#6B675F"/>
  <rect x="24" y="134" width="60" height="5" rx="2" fill="#6B675F"/>
  <!-- Formulaire cols 6-12: rangee 2 champs, champ plein, textarea, bouton accent -->
  <rect x="148" y="26" width="70" height="16" rx="2" fill="none" stroke="#D8D5CE"/>
  <rect x="156" y="32" width="28" height="4" rx="2" fill="#D8D5CE"/>
  <rect x="226" y="26" width="70" height="16" rx="2" fill="none" stroke="#D8D5CE"/>
  <rect x="234" y="32" width="28" height="4" rx="2" fill="#D8D5CE"/>
  <rect x="148" y="50" width="148" height="16" rx="2" fill="none" stroke="#D8D5CE"/>
  <rect x="156" y="56" width="40" height="4" rx="2" fill="#D8D5CE"/>
  <rect x="148" y="74" width="148" height="44" rx="2" fill="none" stroke="#D8D5CE"/>
  <rect x="156" y="82" width="64" height="4" rx="2" fill="#D8D5CE"/>
  <rect x="148" y="128" width="64" height="18" rx="2" fill="#2D4A3E"/>
  <rect x="162" y="135" width="36" height="4" rx="2" fill="#FAFAF7"/>
</svg>
