<svg viewBox="0 0 320 200" xmlns="http://www.w3.org/2000/svg"><rect width="320" height="200" fill="#FBFBF9"/><rect x="24" y="20" width="36" height="5" rx="2" fill="#5C6678"/><rect x="24" y="31" width="130" height="10" rx="2" fill="#16243F"/><rect x="24" y="49" width="168" height="4" rx="2" fill="#5C6678"/><rect x="24" y="72" width="104" height="60" rx="2" fill="#D3D6DC"/><rect x="140" y="76" width="156" height="6" rx="2" fill="#5C6678"/><rect x="140" y="90" width="156" height="6" rx="2" fill="#5C6678"/><rect x="140" y="104" width="72" height="6" rx="2" fill="#5C6678"/><rect x="218" y="104" width="34" height="6" rx="2" fill="#FBBF24"/><rect x="24" y="150" width="88" height="6" rx="2" fill="#5C6678"/><rect x="24" y="164" width="152" height="6" rx="2" fill="#5C6678"/><rect x="24" y="178" width="118" height="6" rx="2" fill="#5C6678"/><rect x="192" y="146" width="104" height="42" rx="2" fill="#D3D6DC"/></svg>
