<svg viewBox="0 0 320 200" xmlns="http://www.w3.org/2000/svg">
  <rect width="320" height="200" fill="#FAFAF7"/>
  <!-- Tete de section cols 1-5: eyebrow + h2 -->
  <rect x="24" y="28" width="36" height="5" rx="2" fill="#6B675F"/>
  <rect x="24" y="41" width="100" height="10" rx="2" fill="#6B675F"/>
  <rect x="24" y="55" width="76" height="10" rx="2" fill="#6B675F"/>
  <!-- Accordeon cols 6-12: item ouvert (chevron accent) + 3 items fermes -->
  <rect x="148" y="28" width="148" height="1" fill="#D8D5CE"/>
  <rect x="148" y="38" width="92" height="6" rx="2" fill="#6B675F"/>
  <path d="M284 46 l5 -5 l5 5" fill="none" stroke="#2D4A3E" stroke-width="1.5" stroke-linecap="round" stroke-linejoin="round"/>
  <rect x="148" y="54" width="140" height="4" rx="2" fill="#6B675F"/>
  <rect x="148" y="62" width="118" height="4" rx="2" fill="#6B675F"/>
  <rect x="148" y="74" width="148" height="1" fill="#D8D5CE"/>
  <rect x="148" y="84" width="84" height="6" rx="2" fill="#6B675F"/>
  <path d="M284 84 l5 5 l5 -5" fill="none" stroke="#6B675F" stroke-width="1.5" stroke-linecap="round" stroke-linejoin="round"/>
  <rect x="148" y="100" width="148" height="1" fill="#D8D5CE"/>
  <rect x="148" y="110" width="96" height="6" rx="2" fill="#6B675F"/>
  <path d="M284 110 l5 5 l5 -5" fill="none" stroke="#6B675F" stroke-width="1.5" stroke-linecap="round" stroke-linejoin="round"/>
  <rect x="148" y="126" width="148" height="1" fill="#D8D5CE"/>
  <rect x="148" y="136" width="78" height="6" rx="2" fill="#6B675F"/>
  <path d="M284 136 l5 5 l5 -5" fill="none" stroke="#6B675F" stroke-width="1.5" stroke-linecap="round" stroke-linejoin="round"/>
  <rect x="148" y="152" width="148" height="1" fill="#D8D5CE"/>
</svg>
