<svg viewBox="0 0 320 200" xmlns="http://www.w3.org/2000/svg">
  <rect width="320" height="200" fill="#FAFAF7"/>
  <!-- SectionHead: eyebrow + h2 -->
  <rect x="24" y="22" width="36" height="5" rx="2" fill="#6B675F"/>
  <rect x="24" y="34" width="128" height="10" rx="2" fill="#6B675F"/>
  <!-- Item 1: icone accent, titre h5, corps -->
  <rect x="24" y="66" width="14" height="14" rx="3" fill="none" stroke="#2D4A3E" stroke-width="1.5"/>
  <rect x="24" y="92" width="58" height="6" rx="2" fill="#6B675F"/>
  <rect x="24" y="104" width="74" height="4" rx="2" fill="#6B675F"/>
  <rect x="24" y="112" width="64" height="4" rx="2" fill="#6B675F"/>
  <!-- Item 2 -->
  <rect x="119" y="66" width="14" height="14" rx="3" fill="none" stroke="#2D4A3E" stroke-width="1.5"/>
  <rect x="119" y="92" width="52" height="6" rx="2" fill="#6B675F"/>
  <rect x="119" y="104" width="74" height="4" rx="2" fill="#6B675F"/>
  <rect x="119" y="112" width="58" height="4" rx="2" fill="#6B675F"/>
  <!-- Item 3 -->
  <rect x="214" y="66" width="14" height="14" rx="3" fill="none" stroke="#2D4A3E" stroke-width="1.5"/>
  <rect x="214" y="92" width="60" height="6" rx="2" fill="#6B675F"/>
  <rect x="214" y="104" width="74" height="4" rx="2" fill="#6B675F"/>
  <rect x="214" y="112" width="66" height="4" rx="2" fill="#6B675F"/>
</svg>
