<svg viewBox="0 0 320 200" xmlns="http://www.w3.org/2000/svg"><rect width="320" height="200" fill="#FBFBF9"/><rect x="24" y="22" width="36" height="5" rx="2" fill="#5C6678"/><rect x="24" y="34" width="130" height="10" rx="2" fill="#16243F"/><rect x="24" y="52" width="168" height="4" rx="2" fill="#5C6678"/><rect x="24" y="82" width="3" height="12" rx="1" fill="#FBBF24"/><rect x="34" y="82" width="86" height="7" rx="2" fill="#16243F"/><rect x="34" y="94" width="104" height="4" rx="2" fill="#5C6678"/><rect x="34" y="102" width="78" height="4" rx="2" fill="#5C6678"/><path d="M24 120 H150" stroke="#D3D6DC" stroke-width="1"/><rect x="24" y="130" width="3" height="12" rx="1" fill="#FBBF24"/><rect x="34" y="130" width="72" height="7" rx="2" fill="#16243F"/><rect x="34" y="142" width="104" height="4" rx="2" fill="#5C6678"/><rect x="34" y="150" width="88" height="4" rx="2" fill="#5C6678"/><path d="M24 168 H150" stroke="#D3D6DC" stroke-width="1"/><rect x="170" y="82" width="3" height="12" rx="1" fill="#FBBF24"/><rect x="180" y="82" width="80" height="7" rx="2" fill="#16243F"/><rect x="180" y="94" width="108" height="4" rx="2" fill="#5C6678"/><rect x="180" y="102" width="70" height="4" rx="2" fill="#5C6678"/><path d="M170 120 H296" stroke="#D3D6DC" stroke-width="1"/><rect x="170" y="130" width="3" height="12" rx="1" fill="#FBBF24"/><rect x="180" y="130" width="90" height="7" rx="2" fill="#16243F"/><rect x="180" y="142" width="100" height="4" rx="2" fill="#5C6678"/><rect x="180" y="150" width="82" height="4" rx="2" fill="#5C6678"/><path d="M170 168 H296" stroke="#D3D6DC" stroke-width="1"/></svg>
