<svg viewBox="0 0 320 200" xmlns="http://www.w3.org/2000/svg">
  <rect width="320" height="200" fill="#FAFAF7"/>
  <!-- SectionHead: eyebrow + h2 -->
  <rect x="24" y="22" width="36" height="5" rx="2" fill="#6B675F"/>
  <rect x="24" y="34" width="124" height="10" rx="2" fill="#6B675F"/>
  <!-- Filets verticaux entre les etapes -->
  <rect x="88" y="64" width="1" height="96" fill="#D8D5CE"/>
  <rect x="159" y="64" width="1" height="96" fill="#D8D5CE"/>
  <rect x="230" y="64" width="1" height="96" fill="#D8D5CE"/>
  <!-- Etape 1: numero accent, titre, corps -->
  <rect x="24" y="70" width="16" height="6" rx="2" fill="#2D4A3E"/>
  <rect x="24" y="84" width="46" height="6" rx="2" fill="#6B675F"/>
  <rect x="24" y="96" width="52" height="4" rx="2" fill="#6B675F"/>
  <rect x="24" y="104" width="44" height="4" rx="2" fill="#6B675F"/>
  <!-- Etape 2 -->
  <rect x="95" y="70" width="16" height="6" rx="2" fill="#2D4A3E"/>
  <rect x="95" y="84" width="42" height="6" rx="2" fill="#6B675F"/>
  <rect x="95" y="96" width="52" height="4" rx="2" fill="#6B675F"/>
  <rect x="95" y="104" width="48" height="4" rx="2" fill="#6B675F"/>
  <!-- Etape 3 -->
  <rect x="166" y="70" width="16" height="6" rx="2" fill="#2D4A3E"/>
  <rect x="166" y="84" width="48" height="6" rx="2" fill="#6B675F"/>
  <rect x="166" y="96" width="52" height="4" rx="2" fill="#6B675F"/>
  <rect x="166" y="104" width="40" height="4" rx="2" fill="#6B675F"/>
  <!-- Etape 4 -->
  <rect x="237" y="70" width="16" height="6" rx="2" fill="#2D4A3E"/>
  <rect x="237" y="84" width="44" height="6" rx="2" fill="#6B675F"/>
  <rect x="237" y="96" width="52" height="4" rx="2" fill="#6B675F"/>
  <rect x="237" y="104" width="46" height="4" rx="2" fill="#6B675F"/>
</svg>
