<svg viewBox="0 0 320 200" xmlns="http://www.w3.org/2000/svg"><rect width="320" height="200" fill="#FBFBF9"/><rect x="24" y="22" width="36" height="5" rx="2" fill="#5C6678"/><rect x="24" y="34" width="130" height="10" rx="2" fill="#16243F"/><rect x="24" y="52" width="168" height="4" rx="2" fill="#5C6678"/><circle cx="52" cy="96" r="15" fill="#FCE9BD"/><circle cx="52" cy="96" r="4" fill="#FBBF24"/><rect x="32" y="122" width="40" height="8" rx="2" fill="#16243F"/><rect x="32" y="136" width="46" height="4" rx="2" fill="#5C6678"/><rect x="32" y="146" width="34" height="4" rx="2" fill="#5C6678"/><path d="M82 96 H108 M104 91 L109 96 L104 101" fill="none" stroke="#16243F" stroke-width="1.5" stroke-linecap="round" stroke-linejoin="round"/><circle cx="139" cy="96" r="15" fill="#FCE9BD"/><circle cx="139" cy="96" r="4" fill="#FBBF24"/><rect x="119" y="122" width="40" height="8" rx="2" fill="#16243F"/><rect x="119" y="136" width="46" height="4" rx="2" fill="#5C6678"/><rect x="119" y="146" width="34" height="4" rx="2" fill="#5C6678"/><path d="M169 96 H195 M191 91 L196 96 L191 101" fill="none" stroke="#16243F" stroke-width="1.5" stroke-linecap="round" stroke-linejoin="round"/><circle cx="226" cy="96" r="15" fill="#FCE9BD"/><circle cx="226" cy="96" r="4" fill="#FBBF24"/><rect x="206" y="122" width="40" height="8" rx="2" fill="#16243F"/><rect x="206" y="136" width="46" height="4" rx="2" fill="#5C6678"/><rect x="206" y="146" width="34" height="4" rx="2" fill="#5C6678"/></svg>
