<svg viewBox="0 0 320 200" xmlns="http://www.w3.org/2000/svg">
  <rect width="320" height="200" fill="#FBFBF9"/>
  <!-- Tete de section: eyebrow, titre, accroche -->
  <rect x="24" y="22" width="36" height="5" rx="2" fill="#5C6678"/>
  <rect x="24" y="34" width="130" height="10" rx="2" fill="#16243F"/>
  <rect x="24" y="52" width="168" height="4" rx="2" fill="#5C6678"/>
  <!-- SPLIT asymetrique -->
  <!-- Gauche (~40%): panneau NAVY avec anneaux de couverture + puce map-pin amber -->
  <rect x="24" y="72" width="112" height="104" rx="4" fill="#16243F"/>
  <!-- Anneaux de couverture (coin bas-droit) -->
  <circle cx="110" cy="150" r="24" fill="none" stroke="#E6ECF3" stroke-width="1" opacity="0.35"/>
  <circle cx="110" cy="150" r="16" fill="none" stroke="#FBBF24" stroke-width="1" opacity="0.6"/>
  <circle cx="110" cy="150" r="8" fill="none" stroke="#FBBF24" stroke-width="1" opacity="0.6"/>
  <!-- Puce d'icone amber map-pin -->
  <rect x="38" y="86" width="16" height="16" rx="4" fill="#FCE9BD"/>
  <circle cx="46" cy="94" r="3" fill="#FBBF24"/>
  <!-- Label + nom sur navy -->
  <rect x="38" y="112" width="52" height="5" rx="2" fill="#E6ECF3"/>
  <rect x="38" y="124" width="78" height="9" rx="2" fill="#E6ECF3"/>
  <!-- Droite (~60%): grille de puces de ville (2 x 2) -->
  <g>
    <rect x="148" y="72" width="72" height="30" rx="2" fill="none" stroke="#D3D6DC" stroke-width="1"/>
    <circle cx="160" cy="87" r="3" fill="#FBBF24"/>
    <rect x="168" y="84.5" width="34" height="5" rx="2" fill="#5C6678"/>
    <path d="M206 84 L210 87 L206 90" fill="none" stroke="#D3D6DC" stroke-width="1.5" stroke-linecap="round" stroke-linejoin="round"/>
  </g>
  <g>
    <rect x="224" y="72" width="72" height="30" rx="2" fill="none" stroke="#D3D6DC" stroke-width="1"/>
    <circle cx="236" cy="87" r="3" fill="#FBBF24"/>
    <rect x="244" y="84.5" width="28" height="5" rx="2" fill="#5C6678"/>
    <path d="M282 84 L286 87 L282 90" fill="none" stroke="#D3D6DC" stroke-width="1.5" stroke-linecap="round" stroke-linejoin="round"/>
  </g>
  <g>
    <rect x="148" y="110" width="72" height="30" rx="2" fill="none" stroke="#D3D6DC" stroke-width="1"/>
    <circle cx="160" cy="125" r="3" fill="#FBBF24"/>
    <rect x="168" y="122.5" width="30" height="5" rx="2" fill="#5C6678"/>
    <path d="M206 122 L210 125 L206 128" fill="none" stroke="#D3D6DC" stroke-width="1.5" stroke-linecap="round" stroke-linejoin="round"/>
  </g>
  <g>
    <rect x="224" y="110" width="72" height="30" rx="2" fill="none" stroke="#D3D6DC" stroke-width="1"/>
    <circle cx="236" cy="125" r="3" fill="#FBBF24"/>
    <rect x="244" y="122.5" width="36" height="5" rx="2" fill="#5C6678"/>
    <path d="M282 122 L286 125 L282 128" fill="none" stroke="#D3D6DC" stroke-width="1.5" stroke-linecap="round" stroke-linejoin="round"/>
  </g>
  <g>
    <rect x="148" y="148" width="72" height="30" rx="2" fill="none" stroke="#D3D6DC" stroke-width="1"/>
    <circle cx="160" cy="163" r="3" fill="#FBBF24"/>
    <rect x="168" y="160.5" width="32" height="5" rx="2" fill="#5C6678"/>
    <path d="M206 160 L210 163 L206 166" fill="none" stroke="#D3D6DC" stroke-width="1.5" stroke-linecap="round" stroke-linejoin="round"/>
  </g>
  <g>
    <rect x="224" y="148" width="72" height="30" rx="2" fill="none" stroke="#D3D6DC" stroke-width="1"/>
    <circle cx="236" cy="163" r="3" fill="#FBBF24"/>
    <rect x="244" y="160.5" width="26" height="5" rx="2" fill="#5C6678"/>
    <path d="M282 160 L286 163 L282 166" fill="none" stroke="#D3D6DC" stroke-width="1.5" stroke-linecap="round" stroke-linejoin="round"/>
  </g>
</svg>
