<svg viewBox="0 0 320 200" xmlns="http://www.w3.org/2000/svg"><rect width="320" height="200" fill="#FBFBF9"/><rect x="24" y="22" width="36" height="5" rx="2" fill="#5C6678"/><rect x="24" y="34" width="130" height="10" rx="2" fill="#16243F"/><rect x="24" y="52" width="168" height="4" rx="2" fill="#5C6678"/><g><rect x="24" y="78" width="62" height="66" rx="2" fill="#D3D6DC"/><rect x="24" y="152" width="52" height="7" rx="2" fill="#16243F"/><rect x="24" y="164" width="34" height="4" rx="2" fill="#5C6678"/></g><g><rect x="98" y="78" width="62" height="66" rx="2" fill="#D3D6DC"/><rect x="98" y="152" width="52" height="7" rx="2" fill="#16243F"/><rect x="98" y="164" width="34" height="4" rx="2" fill="#5C6678"/></g><g><rect x="172" y="78" width="62" height="66" rx="2" fill="#D3D6DC"/><rect x="172" y="152" width="52" height="7" rx="2" fill="#16243F"/><rect x="172" y="164" width="34" height="4" rx="2" fill="#5C6678"/></g><g><rect x="246" y="78" width="50" height="66" rx="2" fill="#D3D6DC"/><rect x="246" y="152" width="44" height="7" rx="2" fill="#16243F"/><rect x="246" y="164" width="28" height="4" rx="2" fill="#5C6678"/></g></svg>
