<svg viewBox="0 0 320 200" xmlns="http://www.w3.org/2000/svg">
  <rect width="320" height="200" fill="#FAFAF7"/>
  <!-- SectionHead: eyebrow + h2 -->
  <rect x="24" y="22" width="36" height="5" rx="2" fill="#6B675F"/>
  <rect x="24" y="34" width="120" height="10" rx="2" fill="#6B675F"/>
  <!-- Carte 1: guillemet accent, citation, nom + contexte -->
  <rect x="24" y="62" width="82" height="88" rx="2" fill="none" stroke="#D8D5CE"/>
  <rect x="34" y="72" width="4" height="10" rx="2" fill="#2D4A3E" transform="rotate(14 36 77)"/>
  <rect x="41" y="72" width="4" height="10" rx="2" fill="#2D4A3E" transform="rotate(14 43 77)"/>
  <rect x="34" y="90" width="62" height="4" rx="2" fill="#6B675F"/>
  <rect x="34" y="98" width="62" height="4" rx="2" fill="#6B675F"/>
  <rect x="34" y="106" width="46" height="4" rx="2" fill="#6B675F"/>
  <rect x="34" y="122" width="40" height="5" rx="2" fill="#6B675F"/>
  <rect x="34" y="131" width="52" height="4" rx="2" fill="#6B675F"/>
  <!-- Carte 2 -->
  <rect x="119" y="62" width="82" height="88" rx="2" fill="none" stroke="#D8D5CE"/>
  <rect x="129" y="72" width="4" height="10" rx="2" fill="#2D4A3E" transform="rotate(14 131 77)"/>
  <rect x="136" y="72" width="4" height="10" rx="2" fill="#2D4A3E" transform="rotate(14 138 77)"/>
  <rect x="129" y="90" width="62" height="4" rx="2" fill="#6B675F"/>
  <rect x="129" y="98" width="58" height="4" rx="2" fill="#6B675F"/>
  <rect x="129" y="106" width="50" height="4" rx="2" fill="#6B675F"/>
  <rect x="129" y="122" width="36" height="5" rx="2" fill="#6B675F"/>
  <rect x="129" y="131" width="56" height="4" rx="2" fill="#6B675F"/>
  <!-- Carte 3 -->
  <rect x="214" y="62" width="82" height="88" rx="2" fill="none" stroke="#D8D5CE"/>
  <rect x="224" y="72" width="4" height="10" rx="2" fill="#2D4A3E" transform="rotate(14 226 77)"/>
  <rect x="231" y="72" width="4" height="10" rx="2" fill="#2D4A3E" transform="rotate(14 233 77)"/>
  <rect x="224" y="90" width="62" height="4" rx="2" fill="#6B675F"/>
  <rect x="224" y="98" width="62" height="4" rx="2" fill="#6B675F"/>
  <rect x="224" y="106" width="42" height="4" rx="2" fill="#6B675F"/>
  <rect x="224" y="122" width="42" height="5" rx="2" fill="#6B675F"/>
  <rect x="224" y="131" width="50" height="4" rx="2" fill="#6B675F"/>
</svg>
