<svg viewBox="0 0 320 200" xmlns="http://www.w3.org/2000/svg">
  <rect width="320" height="200" fill="#FBFBF9"/>
  <!-- Barre de confiance: bande NAVY pleine largeur, 4 items en rangee egale -->
  <rect x="0" y="62" width="320" height="76" fill="#16243F"/>
  <!-- Filets verticaux fins entre les items -->
  <rect x="80" y="80" width="1" height="40" fill="#FBBF24" opacity="0.5"/>
  <rect x="160" y="80" width="1" height="40" fill="#FBBF24" opacity="0.5"/>
  <rect x="240" y="80" width="1" height="40" fill="#FBBF24" opacity="0.5"/>
  <!-- Item 1 -->
  <rect x="32" y="78" width="16" height="16" rx="4" fill="#FCE9BD"/>
  <circle cx="40" cy="86" r="3" fill="#FBBF24"/>
  <rect x="26" y="102" width="28" height="6" rx="2" fill="#E6ECF3"/>
  <rect x="26" y="113" width="44" height="4" rx="2" fill="#E6ECF3" opacity="0.6"/>
  <!-- Item 2 -->
  <rect x="112" y="78" width="16" height="16" rx="4" fill="#FCE9BD"/>
  <circle cx="120" cy="86" r="3" fill="#FBBF24"/>
  <rect x="106" y="102" width="28" height="6" rx="2" fill="#E6ECF3"/>
  <rect x="106" y="113" width="44" height="4" rx="2" fill="#E6ECF3" opacity="0.6"/>
  <!-- Item 3 -->
  <rect x="192" y="78" width="16" height="16" rx="4" fill="#FCE9BD"/>
  <circle cx="200" cy="86" r="3" fill="#FBBF24"/>
  <rect x="186" y="102" width="28" height="6" rx="2" fill="#E6ECF3"/>
  <rect x="186" y="113" width="44" height="4" rx="2" fill="#E6ECF3" opacity="0.6"/>
  <!-- Item 4 -->
  <rect x="272" y="78" width="16" height="16" rx="4" fill="#FCE9BD"/>
  <circle cx="280" cy="86" r="3" fill="#FBBF24"/>
  <rect x="266" y="102" width="28" height="6" rx="2" fill="#E6ECF3"/>
  <rect x="266" y="113" width="40" height="4" rx="2" fill="#E6ECF3" opacity="0.6"/>
</svg>
